<?xml version="1.0" encoding="utf-8"?>
<!-- Generator: Adobe Illustrator 22.1.0, SVG Export Plug-In . SVG Version: 6.00 Build 0)  -->
<svg version="1.1" id="Layer_1" xmlns="http://www.w3.org/2000/svg" xmlns:xlink="http://www.w3.org/1999/xlink" x="0px" y="0px"
	 viewBox="0 0 1366 515" style="enable-background:new 0 0 1366 515;" xml:space="preserve">
<style type="text/css">
	.st0{fill:#1669B2;}
	.st1{fill:#7FC142;}
	.st2{fill:#FFFFFF;}
</style>
<g>
	<path class="st0" d="M665.1,270.8c46.4-41.9,79.6-93.5,98.9-154.2c10.6-33.4,14.7-62.8,16.3-82.7c-12.1-8-43.7-22.8-112.1-22.9
		h-0.6h-0.8h-1.5h-2h-0.7H662c-68.4,0.2-100,15-112.1,22.9c1.5,19.8,5.6,49.2,16.3,82.7C585.5,177.3,618.7,228.9,665.1,270.8z"/>
	<path class="st1" d="M727.9,195.7c9.6-13.6,30.6-59.8,36.2-79.3c4.2-14.9,8.1-28.7,10.6-41.4H555.6c2.6,12.7,6,26.7,10.7,41.4
		c4.2,13.2,16.7,48.8,36,79.3H727.9z"/>
	<path class="st2" d="M643.4,163h-49.3v-2.2h8.8v-54.9h-8.8v-2.2h29.4v2.2h-9.3v54.9h11.5c5.4,0,9.4-1.6,11.8-4.7
		c2.5-3.1,3.9-7.4,4.1-13.1h2.8L643.4,163z"/>
	<path class="st2" d="M678.4,159c-3.4,3.6-7.8,5.4-13.1,5.4c-2.5,0-4.8-0.4-6.7-1.2c-2.2-0.8-4.1-1.9-5.7-3.3l-4.2,3.6h-1.5v-20h2.2
		c0.7,4.6,2.9,10.8,5.6,14c2.7,3.1,6.1,4.7,10.5,4.7c3.7,0,6.8-1.2,9.3-3.5c2.5-2.4,3.8-5.3,3.8-8.6c0-3.6-1.4-6.3-4.2-8.1
		c-3-1.8-6.7-3.3-11.2-4.5c-5.5-1.5-9.4-3.6-11.8-6.4c-2.5-2.8-3.7-6.5-3.7-11.1c0-4.7,1.5-8.6,4.4-11.7c3.1-3,6.8-4.6,11.3-4.6
		c2.4,0,4.7,0.4,6.8,1.1s4,1.8,5.8,3.2l4.4-4.5h0.5v17.4h-2.7c-0.5-4.3-2.1-7.9-4.8-10.8c-2.6-2.8-6.1-4.2-10.1-4.2
		c-3,0-5.5,1-7.6,2.9s-3.2,4.3-3.2,7c0,3.3,1.1,5.4,3.3,6.4c2.3,1.1,5.5,2.2,9.8,3.3c6.8,1.7,11.4,4.1,14,6.9
		c2.6,3,3.9,7.1,3.9,12.4C683.4,150.8,681.8,155.4,678.4,159"/>
	<path class="st2" d="M732.1,158.9c-3.8,2.8-9.1,4.1-15.9,4.1h-31.4v-2.2h8.8v-54.9h-8.8v-2.2h29.5c6.9,0,12.3,1.2,15.9,3.5
		c3.8,2.3,5.6,5.9,5.6,10.7c0,3.8-1.5,6.9-4.5,9.5c-3.1,2.5-7.3,4.1-12.9,5c6.1,0.7,10.7,2.2,14.1,4.9c3.6,2.8,5.3,6.2,5.3,10.1
		C737.8,152.2,735.9,156.1,732.1,158.9 M721.4,108.8c-1.6-1.9-4.1-2.9-7.6-2.9h-9v25.3h8.4c3.5,0,6.2-1.2,7.9-3.5s2.5-5.7,2.5-10
		C723.7,113.7,722.9,110.7,721.4,108.8 M722.2,136.8c-2-2.2-5-3.4-9-3.4h-8.4v27.4h11.7c2.9,0,5-1.2,6.4-3.6
		c1.5-2.4,2.2-5.7,2.2-10.1C725.1,142.5,724.2,139,722.2,136.8"/>
	<path class="st0" d="M337.3,503.4V470h12.6c2.1,0,3.9,0.4,5.5,1c1.6,0.7,2.8,1.6,3.6,2.9c0.8,1.3,1.3,2.8,1.3,4.6
		c0,1.5-0.4,2.8-1.1,4s-1.9,2.3-3.7,3.3c2.3,0.7,3.9,1.8,4.9,3.2c1,1.4,1.4,3,1.4,5c0,1.8-0.3,3.5-1.1,4.8c-0.8,1.4-2,2.5-3.6,3.3
		s-3.5,1.2-5.8,1.2h-14V503.4z M340.5,472.8v11.9h9.8c1.4,0,2.6-0.2,3.6-0.7s1.8-1.2,2.3-2.1c0.6-0.9,0.8-1.9,0.8-3.2
		c0-1-0.1-1.9-0.5-2.6c-0.4-0.8-0.8-1.4-1.5-1.9c-0.6-0.5-1.5-0.8-2.5-1s-2.3-0.3-3.9-0.3L340.5,472.8L340.5,472.8z M340.5,487.5
		v13.2h10.4c1.5,0,2.8-0.2,4-0.7c1.1-0.5,2-1.2,2.7-2.2s1-2.2,1-3.7c0-2-0.7-3.6-2.1-4.8c-1.3-1.2-3.2-1.8-5.4-1.8H340.5z"/>
	<path class="st0" d="M442.6,503.4H439l-4.3-10.7h-15.6l-4.2,10.7h-3.4L425,470h3.3L442.6,503.4z M433.6,490.1l-6.9-16.8l-6.6,16.8
		H433.6z"/>
	<polygon class="st0" points="519.2,503.4 515.9,503.4 496.6,474.9 496.8,503.4 493.7,503.4 493.7,470 496.8,470 516.3,498.8 
		516.1,470 519.2,470 	"/>
	<path class="st0" d="M603.8,499.2c-4.4,3.2-9,4.8-13.8,4.8c-1.8,0-3.4-0.2-5-0.6c-1.5-0.4-2.9-1-4.2-1.7c-1.3-0.8-2.4-1.7-3.5-2.9
		c-1-1.1-1.8-2.3-2.4-3.4c-0.6-1.1-1-2.3-1.2-3.7c-0.3-1.4-0.4-3-0.4-4.6c0-3.7,0.7-6.9,2.1-9.5c1.3-2.6,3.2-4.7,5.7-6.1
		c2.4-1.5,5.4-2.2,8.9-2.2s6.5,0.8,8.8,2.4s3.9,4,4.8,7.2l-3.1,0.9c-1.8-5.2-5.3-7.9-10.7-7.9c-4.1,0-7.3,1.3-9.6,4
		s-3.5,6.3-3.5,10.8c0,2.7,0.5,5.1,1.5,7.3c1,2.2,2.5,3.9,4.5,5.2c1.9,1.3,4.4,2,7.2,2c4,0,7.7-1.2,11.1-3.7v-8.2h-10.6v-2.7h13.7
		v12.6H603.8z"/>
	<path class="st0" d="M685,503.4h-3.6l-4.3-10.7h-15.6l-4.2,10.7h-3.4l13.6-33.5h3.3L685,503.4z M676,490.1l-6.9-16.8l-6.6,16.8H676
		z"/>
	<polygon class="st0" points="756.1,503.4 736.1,503.4 736.1,470 739.2,470 739.2,500.7 756.1,500.7 	"/>
	<path class="st0" d="M838.9,486.7c0,5.2-1.4,9.4-4.1,12.6c-2.8,3.1-6.6,4.7-11.5,4.7c-3.2,0-6-0.7-8.2-2.1
		c-2.3-1.4-4.1-3.4-5.3-5.9c-1.3-2.6-1.9-5.7-1.9-9.3c0-5.2,1.4-9.4,4.1-12.6c2.8-3.1,6.6-4.7,11.4-4.7c3.3,0,6,0.7,8.4,2.2
		c2.3,1.4,4.1,3.4,5.3,6C838.3,480.1,838.9,483.2,838.9,486.7 M835.6,486.7c0-4.4-1.1-7.9-3.2-10.6c-2.3-2.7-5.2-4-9-4
		c-3.9,0-6.8,1.3-9,4.1c-2.1,2.7-3.2,6.2-3.2,10.6c0,4.3,1.1,7.8,3.2,10.6c2.3,2.7,5.2,4.1,9,4.1c2.5,0,4.6-0.6,6.4-1.8
		c1.8-1.2,3.2-2.9,4.2-5.1C835.1,492.3,835.6,489.7,835.6,486.7"/>
	<path class="st0" d="M919.5,503.4h-4l-4.5-7.1c-1.9-2.9-3.2-4.8-4-5.6c-0.8-0.8-1.8-1.5-2.8-2c-1.1-0.5-2.3-0.7-3.6-0.7h-4.9v15.4
		h-3.2V470h14c2.1,0,4,0.4,5.5,1.1s2.6,1.8,3.4,3.1c0.8,1.3,1.2,2.9,1.2,4.8c0,5.3-3.2,8.3-9.7,8.9c2.4,1.2,4.5,3.1,6.2,5.8
		L919.5,503.4z M895.8,472.8v12.5h8.8c5.9,0,8.8-2.1,8.8-6.4c0-0.9-0.1-1.7-0.4-2.5c-0.3-0.7-0.8-1.4-1.5-2s-1.6-1-2.7-1.3
		c-1-0.2-2.4-0.3-4-0.3L895.8,472.8L895.8,472.8z"/>
	<polygon class="st0" points="993,503.4 970.9,503.4 970.9,470 992.3,470 992.3,472.8 974.1,472.8 974.1,484.8 990.9,484.8 
		990.9,487.6 974.1,487.6 974.1,500.7 993,500.7 	"/>
	<g>
		<g>
			<path class="st0" d="M13.3,419.7v-4.3h14.2V309.9H13.8v-4.3h46.8v4.3H44.9v105.5h23.5c8.6,0,15-2,19.1-5.9
				c4.2-3.9,7.5-11.2,10.1-21.9h3.3L99,419.7H13.3z"/>
			<path class="st0" d="M110.4,419.7v-4.3h12.9V309.9h-12.9v-4.3h84.8V333h-3.7c-1.3-8.7-4-14.7-8.1-18.1c-4.1-3.3-11.3-5-21.4-5
				h-21.4v48.3h3.5c7.5,0,12.7-1.3,15.8-4s4.9-7.3,5.5-14h3.6v42.9h-3.6c-0.4-7.6-2.3-12.9-5.8-16s-9.5-4.5-17.9-4.5h-0.9v52.9H165
				c9.4,0,16.4-2,20.8-6.1c4.5-4,7.8-11.4,10-22.1h3.8l-1.8,32.5L110.4,419.7L110.4,419.7z"/>
			<path class="st0" d="M274.7,379.2h45.6v4.3h-10.4c0,12.5-3.8,22.1-11.5,28.8c-7.6,6.7-18.6,10.1-32.8,10.1
				c-15.1,0-27.2-5.3-36.3-15.9s-13.6-24.8-13.6-42.4c0-8.3,1.3-16.2,3.9-23.5c2.5-7.3,6.3-13.9,11.2-19.7
				c4.9-5.8,10.3-10.1,16.4-13c6.1-2.9,12.7-4.4,19.7-4.4c5.4,0,10.4,0.8,15.2,2.4c4.8,1.6,9.1,4,13.1,7.1l6.2-6.2h2.5v29h-3.6
				c-2.1-8.8-6-15.7-11.7-20.6s-12.7-7.4-20.9-7.4c-11.2,0-19.5,4.5-24.6,13.6c-5.2,9.1-7.8,23.5-7.8,43.2c0,19.2,2.3,32.8,6.9,41.1
				c4.6,8.2,12.2,12.4,22.8,12.4c9.2,0,15.8-2.4,19.8-7.1c4-4.8,6-12.6,6-23.5v-4h-16.2v-4.3H274.7z"/>
			<path class="st0" d="M323.8,419.7v-4.3h13.6l38.9-112.7h4.3l36.3,112.7h12v4.3h-43.4v-4.3h14l-11.4-36.7h-33L343,415.4h14.4v4.3
				H323.8z M356.7,373.7h29.9l-14.4-45.8L356.7,373.7z"/>
			<path class="st0" d="M520.4,389.2h3.3v30.6H520l-5.4-5.2c-3.5,2.7-7.5,4.7-12.1,6s-9.8,2-15.5,2c-14.2,0-25.9-5.4-34.9-16.3
				c-9.1-10.8-13.6-24.8-13.6-41.8c0-8.2,1.2-15.9,3.5-23c2.3-7.2,5.7-13.6,10.3-19.4c4.6-5.7,10.1-10.3,16.6-13.6
				c6.6-3.3,13.3-5,20.2-5c4.7,0,9.1,0.8,13.1,2.2c4,1.5,8.1,3.8,12.1,7l5.8-5.7h2.5v28.8h-3.7c-2.4-9.2-6.2-16.1-11.4-20.9
				c-5.2-4.7-11.6-7.1-19.2-7.1c-10.5,0-18.2,4.7-23,14.1s-7.2,24.8-7.2,46.2c0,10.1,0.5,18,1.4,23.5c0.9,5.6,2.5,10.2,4.6,13.7
				c2.3,3.9,5.5,7,9.5,9.3c4,2.2,8.3,3.4,13,3.4c8.3,0,15.2-2.4,21-7.4C513.3,405.9,517.6,398.7,520.4,389.2z"/>
			<path class="st0" d="M565.7,419.7v-4.3h14.8V366l-33.1-56.1H535v-4.3h46.3v4.3h-14.6l29,49.9l26.9-49.9h-17.1v-4.3h35.6v4.3
				h-13.2L598,366.1v49.3h14.9v4.3L565.7,419.7L565.7,419.7z"/>
			<path class="st0" d="M694.3,420.2h-3v-30h3.3c2.7,8.5,7,15.1,12.8,20s12.5,7.3,19.8,7.3c8.2,0,15.1-2.5,20.8-7.7
				c5.7-5.1,8.4-11.4,8.4-18.8c0-8.7-8.6-15.7-25.6-21.1c-1.4-0.4-2.3-0.7-3.1-1c-14.6-4.7-24.2-9.4-29.1-14.3
				c-4.8-4.9-7.2-11.5-7.2-19.9c0-9.4,3.1-17,9.3-23c6.2-5.9,14.2-8.8,24.1-8.8c7.3,0,14.2,2,20.6,6c1.2,0.8,1.9,1.2,2.2,1.2
				c0.3-0.1,0.6-0.2,0.9-0.3c0.2-0.1,0.5-0.4,0.7-0.6l3.3-4.1h3.6v26.1H753c-2.7-8-6.7-14.1-11.6-18c-5-4-11.2-6-18.4-6
				c-6.5,0-12,2-16.5,5.8c-4.5,3.9-6.8,8.6-6.8,14.2c0,4.6,1.7,8.4,5.2,11.4c3.4,3,9.1,5.5,17,7.5c1.1,0.3,2.9,0.7,5.2,1.4
				c13.1,3.5,21.8,6.8,26,10.1c3.7,2.9,6.6,6.5,8.5,10.8c2,4.3,3,9.2,3,14.6c0,11.8-3.5,21.2-10.5,28.2s-16.4,10.5-28.2,10.5
				c-8.3,0-15.9-2.3-22.8-6.8c-1.1-0.7-1.8-1.1-2-1.1s-0.4,0.1-0.7,0.3c-0.2,0.2-0.5,0.4-0.8,0.7L694.3,420.2z"/>
			<path class="st0" d="M859.7,389.2h3.4v30.6h-3.7l-5.4-5.2c-3.4,2.7-7.5,4.7-12.1,6s-9.7,2-15.5,2c-14.2,0-25.9-5.4-34.9-16.3
				c-9.1-10.8-13.6-24.8-13.6-41.8c0-8.2,1.1-15.9,3.5-23c2.3-7.2,5.8-13.6,10.2-19.4c4.5-5.7,10.1-10.3,16.6-13.6
				c6.6-3.3,13.3-5,20.2-5c4.7,0,9.1,0.8,13.1,2.2c4,1.5,8.1,3.8,12.1,7l5.8-5.7h2.5v28.8h-3.6c-2.4-9.2-6.2-16.1-11.4-20.9
				c-5.2-4.7-11.6-7.1-19.2-7.1c-10.6,0-18.3,4.7-23,14.1c-4.8,9.4-7.2,24.8-7.2,46.2c0,10.1,0.5,18,1.4,23.5
				c0.9,5.6,2.4,10.2,4.6,13.7c2.3,3.9,5.5,7,9.5,9.3c4,2.2,8.3,3.4,13,3.4c8.3,0,15.3-2.4,21-7.4
				C852.7,405.9,857,398.7,859.7,389.2z"/>
			<path class="st0" d="M881.5,419.7v-4.3h12.9V309.9h-12.9v-4.3h43.1v4.3h-12.9v48.3h49.2v-48.3H948v-4.3h43.1v4.3h-12.8v105.5
				h12.8v4.3H948v-4.3h12.9V363h-49.2v52.4h12.9v4.3L881.5,419.7L881.5,419.7z"/>
			<path class="st0" d="M1055.6,422.5c-7.6,0-14.4-1.4-20.2-4.3c-5.8-2.9-11.2-7.4-15.9-13.6c-4.3-5.6-7.5-12-9.9-19.3
				c-2.3-7.3-3.5-15-3.5-23.1c0-7.8,1.1-15,3.4-21.8c2.2-6.7,5.6-12.8,10-18.3c5.1-6.3,10.7-10.9,16.6-14c5.9-3,12.4-4.6,19.5-4.6
				c6.8,0,13,1.4,18.6,4.1s10.8,6.8,15.6,12.4c4.9,5.8,8.7,12.3,11.3,19.6c2.6,7.3,3.9,15.1,3.9,23.4c0,8.1-1.2,15.8-3.7,23.1
				c-2.4,7.4-6,13.9-10.5,19.4c-4.7,5.8-9.9,10.1-15.5,12.8C1069.6,421.1,1063.1,422.5,1055.6,422.5z M1055.6,307.9
				c-10.9,0-18.6,4.5-23.1,13.4c-4.4,8.9-6.7,25.2-6.7,48.8c0,16.1,2.5,28.2,7.4,36.1s12.4,11.9,22.4,11.9s17.5-4,22.3-12
				c4.9-8,7.3-20.1,7.3-36.4c0-23.7-2.2-40.1-6.6-48.8C1074.3,312.3,1066.6,307.9,1055.6,307.9z"/>
			<path class="st0" d="M1170.2,422.5c-7.7,0-14.4-1.4-20.2-4.3c-5.8-2.9-11.1-7.4-15.9-13.6c-4.3-5.6-7.6-12-9.9-19.3
				s-3.5-15-3.5-23.1c0-7.8,1.1-15,3.3-21.8c2.2-6.7,5.6-12.8,10.1-18.3c5.1-6.3,10.7-10.9,16.6-14c6-3,12.5-4.6,19.5-4.6
				c6.7,0,13,1.4,18.6,4.1c5.7,2.7,10.8,6.8,15.5,12.4c5,5.8,8.7,12.3,11.3,19.6c2.6,7.3,3.9,15.1,3.9,23.4c0,8.1-1.2,15.8-3.7,23.1
				c-2.5,7.4-5.9,13.9-10.6,19.4c-4.7,5.8-9.8,10.1-15.5,12.8C1184.2,421.1,1177.6,422.5,1170.2,422.5z M1170.2,307.9
				c-10.9,0-18.6,4.5-23.1,13.4s-6.7,25.2-6.7,48.8c0,16.1,2.4,28.2,7.4,36.1c4.9,7.9,12.4,11.9,22.4,11.9s17.4-4,22.3-12
				s7.3-20.1,7.3-36.4c0-23.7-2.2-40.1-6.6-48.8C1188.8,312.3,1181.1,307.9,1170.2,307.9z"/>
			<path class="st0" d="M1232.6,419.7v-4.3h14.3V309.9h-13.7v-4.3h46.7v4.3h-15.7v105.5h23.5c8.6,0,15-2,19.1-5.9
				c4.2-3.9,7.5-11.2,10.1-21.9h3.3l-2,32.1H1232.6z"/>
		</g>
	</g>
	<path class="st0" d="M1327.7,303.1v3.2h-6.2v16.3h-3.9v-16.3h-6.3v-3.2H1327.7z M1348.9,322.6l-0.7-11.5c-0.1-1.6-0.1-3.4-0.1-5.5
		h-0.2c-0.6,1.7-1.2,4-1.7,5.8l-3.6,10.9h-4.1l-3.5-11.2c-0.3-1.4-0.9-3.8-1.4-5.5h-0.2c0,1.8-0.1,3.7-0.1,5.5l-0.8,11.5h-3.8
		l1.5-19.6h5.9l3.4,9.6c0.5,1.6,0.8,3,1.3,5h0.1c0.5-1.7,0.9-3.4,1.3-4.8l3.4-9.7h5.6l1.6,19.6L1348.9,322.6L1348.9,322.6z"/>
	<rect x="13.1" y="444" class="st1" width="1339.5" height="1.9"/>
</g>
</svg>
