<svg xmlns="http://www.w3.org/2000/svg" viewBox="0 0 413.15 1000.62"><defs><style>.cls-1{fill:#42e6ea;}</style></defs><title>Circuit</title><g id="Layer_2" data-name="Layer 2"><g id="Layer_1-2" data-name="Layer 1"><circle class="cls-1" cx="216.13" cy="751.06" r="3.58"/><circle class="cls-1" cx="216.13" cy="846.59" r="3.58"/><circle class="cls-1" cx="197.02" cy="731.96" r="3.58"/><circle class="cls-1" cx="273.44" cy="407.18" r="3.58"/><circle class="cls-1" cx="216.13" cy="827.48" r="3.58"/><circle class="cls-1" cx="177.92" cy="617.33" r="3.58"/><circle class="cls-1" cx="273.44" cy="770.17" r="3.58"/><circle class="cls-1" cx="120.6" cy="846.59" r="3.58"/><circle class="cls-1" cx="177.92" cy="579.12" r="3.58"/><circle class="cls-1" cx="197.02" cy="751.06" r="3.58"/><path class="cls-1" d="M119.41,556.63a3.58,3.58,0,1,0,4.57,2.19A3.6,3.6,0,0,0,119.41,556.63Z"/><circle class="cls-1" cx="292.55" cy="579.12" r="3.58"/><circle class="cls-1" cx="120.6" cy="598.22" r="3.58"/><circle class="cls-1" cx="139.71" cy="827.48" r="3.58"/><circle class="cls-1" cx="101.5" cy="770.17" r="3.58"/><circle class="cls-1" cx="101.5" cy="674.64" r="3.58"/><circle class="cls-1" cx="139.71" cy="693.75" r="3.58"/><circle class="cls-1" cx="292.55" cy="598.22" r="3.58"/><circle class="cls-1" cx="254.34" cy="579.12" r="3.58"/><circle class="cls-1" cx="177.92" cy="827.48" r="3.58"/><circle class="cls-1" cx="273.44" cy="731.96" r="3.58"/><circle class="cls-1" cx="158.81" cy="789.27" r="3.58"/><circle class="cls-1" cx="101.5" cy="655.54" r="3.58"/><circle class="cls-1" cx="139.71" cy="598.22" r="3.58"/><circle class="cls-1" cx="292.55" cy="846.59" r="3.58"/><circle class="cls-1" cx="139.71" cy="712.85" r="3.58"/><circle class="cls-1" cx="158.81" cy="827.48" r="3.58"/><circle class="cls-1" cx="120.6" cy="579.12" r="3.58"/><circle class="cls-1" cx="292.55" cy="827.48" r="3.58"/><circle class="cls-1" cx="292.55" cy="483.6" r="3.58"/><circle class="cls-1" cx="292.55" cy="808.38" r="3.58"/><circle class="cls-1" cx="273.44" cy="579.12" r="3.58"/><circle class="cls-1" cx="235.23" cy="579.12" r="3.58"/><circle class="cls-1" cx="120.6" cy="674.64" r="3.58"/><circle class="cls-1" cx="197.02" cy="712.85" r="3.58"/><circle class="cls-1" cx="216.13" cy="693.75" r="3.58"/><circle class="cls-1" cx="158.81" cy="636.43" r="3.58"/><circle class="cls-1" cx="292.55" cy="731.96" r="3.58"/><circle class="cls-1" cx="197.02" cy="368.97" r="3.58"/><circle class="cls-1" cx="158.81" cy="273.44" r="3.58"/><circle class="cls-1" cx="139.71" cy="235.23" r="3.58"/><circle class="cls-1" cx="216.13" cy="483.6" r="3.58"/><circle class="cls-1" cx="235.23" cy="216.13" r="3.58"/><circle class="cls-1" cx="101.5" cy="292.55" r="3.58"/><circle class="cls-1" cx="120.6" cy="216.13" r="3.58"/><circle class="cls-1" cx="273.44" cy="216.13" r="3.58"/><circle class="cls-1" cx="177.92" cy="464.49" r="3.58"/><circle class="cls-1" cx="120.6" cy="311.65" r="3.58"/><circle class="cls-1" cx="254.34" cy="216.13" r="3.58"/><circle class="cls-1" cx="158.81" cy="426.28" r="3.58"/><circle class="cls-1" cx="235.23" cy="865.69" r="3.58"/><circle class="cls-1" cx="216.13" cy="464.49" r="3.58"/><circle class="cls-1" cx="216.13" cy="388.07" r="3.58"/><circle class="cls-1" cx="254.34" cy="540.91" r="3.58"/><circle class="cls-1" cx="292.55" cy="368.97" r="3.58"/><circle class="cls-1" cx="235.23" cy="884.8" r="3.58"/><circle class="cls-1" cx="292.55" cy="235.23" r="3.58"/><circle class="cls-1" cx="292.55" cy="445.39" r="3.58"/><circle class="cls-1" cx="235.23" cy="502.7" r="3.58"/><circle class="cls-1" cx="101.5" cy="311.65" r="3.58"/><circle class="cls-1" cx="177.92" cy="254.34" r="3.58"/><circle class="cls-1" cx="177.92" cy="216.13" r="3.58"/><path class="cls-1" d="M119.41,193.64a3.58,3.58,0,1,0,4.57,2.19A3.58,3.58,0,0,0,119.41,193.64Z"/><circle class="cls-1" cx="292.55" cy="216.13" r="3.58"/><circle class="cls-1" cx="120.6" cy="235.23" r="3.58"/><circle class="cls-1" cx="235.23" cy="521.81" r="3.58"/><circle class="cls-1" cx="254.34" cy="177.92" r="3.58"/><circle class="cls-1" cx="235.23" cy="158.81" r="3.58"/><circle class="cls-1" cx="120.6" cy="483.6" r="3.58"/><circle class="cls-1" cx="101.5" cy="407.18" r="3.58"/><circle class="cls-1" cx="197.02" cy="388.07" r="3.58"/><circle class="cls-1" cx="158.81" cy="464.49" r="3.58"/><circle class="cls-1" cx="139.71" cy="464.49" r="3.58"/><circle class="cls-1" cx="139.71" cy="330.76" r="3.58"/><circle class="cls-1" cx="139.71" cy="349.86" r="3.58"/><circle class="cls-1" cx="216.13" cy="330.76" r="3.58"/><circle class="cls-1" cx="197.02" cy="349.86" r="3.58"/><circle class="cls-1" cx="273.44" cy="368.97" r="3.58"/><circle class="cls-1" cx="292.55" cy="464.49" r="3.58"/><path class="cls-1" d="M406,470.34a6,6,0,1,0-4.65-7H298.4a6,6,0,1,0,0,2.38H401.33A6,6,0,0,0,406,470.34Zm1.2-9.43a3.58,3.58,0,1,1-3.59,3.58A3.58,3.58,0,0,1,407.18,460.91Zm-114.63,7.16a3.58,3.58,0,1,1,3.58-3.58A3.58,3.58,0,0,1,292.55,468.07Z"/><path class="cls-1" d="M389.27,267.59a6,6,0,1,0-2.39,11.7v22.32l-38.21,38.21-19.11,19.1v85.27H298.4a6,6,0,1,0,0,2.39H332V359.9l16.72-16.71,40.6-40.6v-23.3a6,6,0,0,0,0-11.7ZM292.55,449a3.59,3.59,0,1,1,3.58-3.58A3.59,3.59,0,0,1,292.55,449Zm95.52-172a3.58,3.58,0,1,1,3.58-3.58A3.58,3.58,0,0,1,388.07,277Z"/><path class="cls-1" d="M406,833.33a6,6,0,1,0-4.65-7H298.4a6,6,0,1,0,0,2.39H401.33A6,6,0,0,0,406,833.33Zm1.2-9.43a3.59,3.59,0,1,1-3.59,3.58A3.59,3.59,0,0,1,407.18,823.9Zm-114.63,7.17a3.59,3.59,0,1,1,3.58-3.59A3.59,3.59,0,0,1,292.55,831.07Z"/><path class="cls-1" d="M389.27,630.59a6,6,0,1,0-2.39,11.7V664.6l-38.21,38.21-19.11,19.11v85.27H298.4a6,6,0,1,0,0,2.38H332V722.9l16.72-16.72,40.6-40.6V642.29a6,6,0,0,0,0-11.7ZM292.55,812a3.58,3.58,0,1,1,3.58-3.58A3.58,3.58,0,0,1,292.55,812ZM388.07,640a3.59,3.59,0,1,1,3.58-3.59A3.58,3.58,0,0,1,388.07,640Z"/><path class="cls-1" d="M389.27,969.34V845.4H298.4a6,6,0,1,0,0,2.38h88.48v122.5l-28,28H293.74V967.07a6,6,0,1,0-2.39,0v33.55H359.9l29.37-29.36ZM292.55,850.17a3.58,3.58,0,1,1,3.58-3.58A3.58,3.58,0,0,1,292.55,850.17ZM289,961.22a3.59,3.59,0,1,1,3.59,3.58A3.58,3.58,0,0,1,289,961.22Z"/><path class="cls-1" d="M293.74,23.88h-19.1V11.82a6,6,0,1,0-2.39,0V26.27h19.1V62.09h-19.1V140.9h57.31v76.42h40.6V138.51H348.67v52.66a6,6,0,0,0-4.66,4.66h0a6,6,0,0,0,4.66,7,6.09,6.09,0,0,0,2.33,0,6,6,0,0,0,.06-11.7V140.9h16.71v74H332V138.51H274.64v-74h19.1V23.88ZM269.86,6a3.58,3.58,0,1,1,3.58,3.58A3.58,3.58,0,0,1,269.86,6Zm83.38,189.86a3.51,3.51,0,0,1,0,2.39,3.58,3.58,0,0,1-4.57,2.18h0a3.59,3.59,0,0,1,0-6.76h0A3.58,3.58,0,0,1,353.24,195.83Z"/><path class="cls-1" d="M267.59,45.37a6,6,0,1,0,0-2.38H253.14V160h57.32v76.42h14.45a6,6,0,1,0,0-2.38H312.85V157.62H255.53V45.37Zm5.85-4.77a3.58,3.58,0,1,1-3.58,3.58A3.58,3.58,0,0,1,273.44,40.6Zm57.32,191.05a3.58,3.58,0,1,1-3.59,3.58A3.58,3.58,0,0,1,330.76,231.65Z"/><path class="cls-1" d="M100.3,195.83v57.31H62.09v67.57L4.78,378v4.19a6,6,0,1,0,2.39,0V379l57.31-57.32V255.53h38.21V179.11h145.8a6,6,0,1,0,0-2.39H100.3ZM9.55,388.07A3.58,3.58,0,1,1,6,384.49,3.58,3.58,0,0,1,9.55,388.07ZM254.34,174.33a3.59,3.59,0,1,1-3.59,3.59A3.59,3.59,0,0,1,254.34,174.33Z"/><path class="cls-1" d="M236.42,153a6,6,0,0,0-7,4.66H81.2V234H50a6,6,0,1,0,0,2.38H83.59V160H229.38a6,6,0,1,0,7-7ZM44.18,238.81a3.58,3.58,0,1,1,3.58-3.58A3.58,3.58,0,0,1,44.18,238.81Zm191-76.42a3.58,3.58,0,1,1,3.58-3.58A3.58,3.58,0,0,1,235.23,162.39Z"/><path class="cls-1" d="M298.4,119.41a6,6,0,1,0,0,2.38h88.48v122.5l-28,28H293.74V241.08a6,6,0,1,0-2.39,0v33.55H359.9l29.37-29.36V119.41H298.4Zm-5.85,4.77a3.58,3.58,0,1,1,3.58-3.58A3.58,3.58,0,0,1,292.55,124.18Zm-3.59,111a3.59,3.59,0,1,1,3.59,3.58A3.58,3.58,0,0,1,289,235.23Z"/><path class="cls-1" d="M121.79,191.16a6,6,0,1,0,4.66,7.05h69.38V234H179.11V222a6,6,0,1,0-2.39,0v14.44h21.5V195.83H126.45A6,6,0,0,0,121.79,191.16Zm52.54,25a3.59,3.59,0,1,1,3.59,3.58A3.59,3.59,0,0,1,174.33,216.13ZM124,198.2a3.58,3.58,0,1,1,0-2.38A3.58,3.58,0,0,1,124,198.2Z"/><path class="cls-1" d="M267.59,408.37a6,6,0,1,0,0-2.39H253.14V523h57.32v76.42h14.45a6,6,0,1,0,0-2.39H312.85V520.61H255.53V408.37Zm5.85-4.78a3.59,3.59,0,1,1-3.58,3.59A3.58,3.58,0,0,1,273.44,403.59Zm57.32,191.05a3.59,3.59,0,1,1-3.59,3.58A3.59,3.59,0,0,1,330.76,594.64Z"/><path class="cls-1" d="M305.8,425.08a6,6,0,1,0,7.05-4.65V367.77H298.4a6,6,0,1,0,0,2.39h12.06v50.27A6,6,0,0,0,305.8,425.08Zm-13.25-52.53a3.59,3.59,0,1,1,3.58-3.58A3.59,3.59,0,0,1,292.55,372.55Zm19.1,50.15a3.58,3.58,0,1,1-3.58,3.58A3.58,3.58,0,0,1,311.65,422.7Z"/><path class="cls-1" d="M176.72,339.82V458.64a6,6,0,1,0,2.39,0V340.8l27.95-28H344a6,6,0,0,0,11.82-1.19,6.2,6.2,0,0,0-.11-1.14,6,6,0,0,0-11.71-.05H206.08Zm4.78,124.67a3.59,3.59,0,1,1-3.58-3.58A3.58,3.58,0,0,1,181.5,464.49ZM348.67,308.27a3.58,3.58,0,1,1-2.19,4.57A3.57,3.57,0,0,1,348.67,308.27Z"/><path class="cls-1" d="M26.27,382.22a6,6,0,1,0,4.66,7H53.26l47,47.05v67.58H229.38a6,6,0,1,0,0-2.38H102.69V435.35L54.21,386.88H30.93A6,6,0,0,0,26.27,382.22Zm-1.19,9.43a3.58,3.58,0,1,1,3.58-3.58A3.58,3.58,0,0,1,25.08,391.65ZM235.23,499.12a3.58,3.58,0,1,1-3.58,3.58A3.58,3.58,0,0,1,235.23,499.12Z"/><path class="cls-1" d="M45.38,363.12a6,6,0,1,0,4.65,7h52.66V317.5a6,6,0,1,0-2.39,0v50.27H50A6,6,0,0,0,45.38,363.12Zm-1.2,9.43A3.59,3.59,0,1,1,47.76,369,3.58,3.58,0,0,1,44.18,372.55Zm53.73-60.9a3.59,3.59,0,1,1,3.59,3.58A3.58,3.58,0,0,1,97.91,311.65Z"/><path class="cls-1" d="M81.2,272.25v76.42H69.14a6,6,0,1,0,0,2.38H83.59V274.63H121.8V241.08a6,6,0,1,0-2.39,0v31.17ZM63.29,353.44a3.58,3.58,0,1,1,3.58-3.58A3.58,3.58,0,0,1,63.29,353.44ZM117,235.23a3.58,3.58,0,1,1,3.58,3.58A3.58,3.58,0,0,1,117,235.23Z"/><path class="cls-1" d="M279.29,217.32a6,6,0,1,0-7,4.66v71.76h90.87a6,6,0,1,0,0-2.39H274.64V222A6,6,0,0,0,279.29,217.32ZM369,289a3.59,3.59,0,1,1-3.59,3.59A3.59,3.59,0,0,1,369,289Zm-95.53-69.25a3.59,3.59,0,1,1,3.58-3.58A3.58,3.58,0,0,1,273.44,219.71Z"/><path class="cls-1" d="M214.93,253.14H183.77a6,6,0,1,0,0,2.39h33.55V198.21h57.32v-19.1h16.71v31.16a6,6,0,1,0,2.39,0V176.72H272.25v19.11H214.93Zm-37,4.78a3.59,3.59,0,1,1,3.58-3.58A3.59,3.59,0,0,1,177.92,257.92Zm118.21-41.79a3.59,3.59,0,1,1-3.58-3.59A3.59,3.59,0,0,1,296.13,216.13Z"/><path class="cls-1" d="M153,463.29a6,6,0,1,0,7-4.65V444.19H140.9V355.71h0a6,6,0,1,0-2.39,0v90.87h19.11v12.06A6,6,0,0,0,153,463.29ZM136.12,349.86a3.59,3.59,0,1,1,3.59,3.58A3.58,3.58,0,0,1,136.12,349.86Zm22.69,111.05a3.58,3.58,0,1,1-3.58,3.58A3.58,3.58,0,0,1,158.81,460.91Z"/><path class="cls-1" d="M100.3,413a6,6,0,0,0,7-4.65h12.06v57.31h14.45a6,6,0,1,0,0-2.38H121.8V406H107.35a6,6,0,1,0-7,7Zm39.41,47.89a3.58,3.58,0,1,1-3.59,3.58A3.58,3.58,0,0,1,139.71,460.91ZM101.5,403.59a3.59,3.59,0,1,1-3.59,3.59A3.59,3.59,0,0,1,101.5,403.59Z"/><path class="cls-1" d="M83.59,382.22a6,6,0,1,0,4.65,7H121.8V332h12.06a6,6,0,1,0,0-2.39H119.41v57.32H88.24A6,6,0,0,0,83.59,382.22Zm-1.2,9.43A3.58,3.58,0,1,1,86,388.07,3.58,3.58,0,0,1,82.39,391.65Zm57.32-64.48a3.59,3.59,0,1,1-3.59,3.59A3.59,3.59,0,0,1,139.71,327.17Z"/><path class="cls-1" d="M298.4,482.4a6,6,0,1,0,0,2.39h88.48v122.5l-28,28H293.74V604.08a6,6,0,1,0-2.39,0v33.55H359.9l29.37-29.36V482.4H298.4Zm-5.85,4.78a3.59,3.59,0,1,1,3.58-3.58A3.59,3.59,0,0,1,292.55,487.18Zm-3.59,111a3.59,3.59,0,1,1,3.59,3.59A3.59,3.59,0,0,1,289,598.22Z"/><path class="cls-1" d="M119.41,489.44a6,6,0,0,0,7-4.65h71.77V393.92a6,6,0,1,0-2.39,0V482.4H126.45a6,6,0,1,0-7,7Zm74-101.37a3.58,3.58,0,1,1,3.58,3.58A3.58,3.58,0,0,1,193.44,388.07ZM120.6,480A3.59,3.59,0,1,1,117,483.6,3.58,3.58,0,0,1,120.6,480Z"/><path class="cls-1" d="M293.74,386.88h-19.1V374.82a6,6,0,1,0-2.39,0v14.44h19.1v35.83h-19.1v78.8h57.31v76.42h40.6v-78.8H348.67v52.65a6,6,0,0,0-4.66,4.66h0a6,6,0,0,0,4.66,7,6.09,6.09,0,0,0,2.33,0,6,6,0,0,0,.06-11.71V503.89h16.71v74H332V501.51H274.64v-74h19.1V386.88ZM269.86,369a3.58,3.58,0,1,1,3.58,3.58A3.58,3.58,0,0,1,269.86,369Zm83.38,189.85a3.53,3.53,0,0,1,0,2.4,3.57,3.57,0,0,1-4.57,2.17h0a3.58,3.58,0,0,1,0-6.75h0A3.59,3.59,0,0,1,353.24,558.82Z"/><path class="cls-1" d="M329.56,336.6a6,6,0,1,0-4.65-7H222a6,6,0,1,0,0,2.39H324.91A6,6,0,0,0,329.56,336.6Zm1.2-9.43a3.59,3.59,0,1,1-3.59,3.59A3.59,3.59,0,0,1,330.76,327.17Zm-114.63,7.17a3.59,3.59,0,1,1,3.58-3.58A3.59,3.59,0,0,1,216.13,334.34Z"/><path class="cls-1" d="M310.46,355.71a6,6,0,1,0-4.66-7H202.87a6,6,0,1,0,0,2.38H305.8A6,6,0,0,0,310.46,355.71Zm1.19-9.43a3.58,3.58,0,1,1-3.58,3.58A3.58,3.58,0,0,1,311.65,346.28ZM197,353.44a3.58,3.58,0,1,1,3.58-3.58A3.58,3.58,0,0,1,197,353.44Z"/><path class="cls-1" d="M121.79,554.16a6,6,0,1,0,4.66,7.05h69.38V597H179.11V585a6,6,0,1,0-2.39,0v14.45h21.5v-40.6H126.45A6,6,0,0,0,121.79,554.16Zm52.54,25a3.59,3.59,0,1,1,3.59,3.58A3.58,3.58,0,0,1,174.33,579.12ZM124,561.2a3.58,3.58,0,1,1,0-2.38A3.59,3.59,0,0,1,124,561.2Z"/><path class="cls-1" d="M107.35,291.35a6,6,0,1,0,0,2.39H140.9V241.08a6,6,0,1,0-2.39,0v50.27Zm-5.85,4.78a3.59,3.59,0,1,1,3.58-3.58A3.59,3.59,0,0,1,101.5,296.13Zm34.62-60.9a3.59,3.59,0,1,1,3.59,3.58A3.58,3.58,0,0,1,136.12,235.23Z"/><path class="cls-1" d="M126.45,214.93a6,6,0,1,0,0,2.39h31.17v50.27a6,6,0,1,0,2.39,0V214.93Zm-5.85,4.78a3.59,3.59,0,1,1,3.58-3.58A3.58,3.58,0,0,1,120.6,219.71Zm41.79,53.73a3.58,3.58,0,1,1-3.58-3.58A3.58,3.58,0,0,1,162.39,273.44Z"/><path class="cls-1" d="M214.93,489.44a6,6,0,0,0,7-4.65h14.45V389.26h19.1V367.77H202.87a6,6,0,1,0,0,2.39h50.27v16.72H234V482.4H222a6,6,0,1,0-7,7ZM197,372.55A3.59,3.59,0,1,1,200.6,369,3.58,3.58,0,0,1,197,372.55ZM216.13,480a3.59,3.59,0,1,1-3.59,3.59A3.59,3.59,0,0,1,216.13,480Z"/><path class="cls-1" d="M210.28,463.29a6,6,0,1,0,7-4.65V393.92a6,6,0,1,0-2.39,0v64.72A6,6,0,0,0,210.28,463.29Zm2.26-75.22a3.59,3.59,0,1,1,3.59,3.58A3.58,3.58,0,0,1,212.54,388.07Zm3.59,72.84a3.58,3.58,0,1,1-3.59,3.58A3.58,3.58,0,0,1,216.13,460.91Z"/><path class="cls-1" d="M119.41,317.5a6,6,0,0,0,7-4.66h23.8l38.21-38.21h48V222a6,6,0,1,0-2.39,0v50.27H187.47l-38.21,38.21H126.45a6,6,0,1,0-7,7ZM231.65,216.13a3.58,3.58,0,1,1,3.58,3.58A3.58,3.58,0,0,1,231.65,216.13Zm-111,91.94a3.58,3.58,0,1,1-3.58,3.58A3.58,3.58,0,0,1,120.6,308.07Z"/><path class="cls-1" d="M195.34,291.35l-37.72,37.72v91.36a6,6,0,1,0,2.39,0V330.05l36.31-36.31h59.21V222a6,6,0,1,0-2.39,0v69.37Zm-33,134.93a3.58,3.58,0,1,1-3.58-3.58A3.58,3.58,0,0,1,162.39,426.28Zm88.36-210.15a3.59,3.59,0,1,1,3.59,3.58A3.59,3.59,0,0,1,250.75,216.13Z"/><path class="cls-1" d="M64.48,684.69V618.52h38.21V542.1h145.8a6,6,0,1,0,0-2.38H100.3v76.42H62.09v67.57L4.78,741v4.19a6,6,0,1,0,2.39,0V742ZM254.34,537.33a3.58,3.58,0,1,1-3.59,3.58A3.58,3.58,0,0,1,254.34,537.33ZM9.55,751.06A3.58,3.58,0,1,1,6,747.48,3.58,3.58,0,0,1,9.55,751.06Z"/><path class="cls-1" d="M229.38,866.89a6,6,0,1,0,0-2.39H102.69V798.35L54.21,749.87H30.93a6,6,0,1,0,0,2.39H53.26l47,47v67.58Zm5.85-4.78a3.59,3.59,0,1,1-3.58,3.58A3.58,3.58,0,0,1,235.23,862.11ZM25.08,754.65a3.59,3.59,0,1,1,3.58-3.59A3.59,3.59,0,0,1,25.08,754.65Z"/><path class="cls-1" d="M210.28,826.29a6,6,0,1,0,7-4.66V756.92a6,6,0,1,0-2.39,0v64.71A6,6,0,0,0,210.28,826.29Zm2.26-75.23a3.59,3.59,0,1,1,3.59,3.59A3.59,3.59,0,0,1,212.54,751.06Zm3.59,72.84a3.59,3.59,0,1,1-3.59,3.58A3.59,3.59,0,0,1,216.13,823.9Z"/><path class="cls-1" d="M214.93,852.44a6,6,0,0,0,7-4.66h14.45V752.26h19.1V730.77H202.87a6,6,0,1,0,0,2.38h50.27v16.72H234V845.4H222a6,6,0,1,0-7,7ZM197,735.54A3.58,3.58,0,1,1,200.6,732,3.58,3.58,0,0,1,197,735.54ZM216.13,843a3.58,3.58,0,1,1-3.59,3.58A3.58,3.58,0,0,1,216.13,843Z"/><path class="cls-1" d="M43,604.07a6,6,0,0,0,7-4.65H83.59V523H229.38a6,6,0,1,0,0-2.39H81.2V597H50a6,6,0,1,0-7,7Zm192.24-85.85a3.59,3.59,0,1,1-3.58,3.59A3.58,3.58,0,0,1,235.23,518.22Zm-191,76.42a3.59,3.59,0,1,1-3.58,3.58A3.58,3.58,0,0,1,44.18,594.64Z"/><path class="cls-1" d="M305.8,788.08a6,6,0,1,0,7.05-4.66V730.77H298.4a6,6,0,1,0,0,2.38h12.06v50.27A6,6,0,0,0,305.8,788.08Zm-13.25-52.54a3.58,3.58,0,1,1,3.58-3.58A3.58,3.58,0,0,1,292.55,735.54Zm19.1,50.15a3.59,3.59,0,1,1-3.58,3.58A3.58,3.58,0,0,1,311.65,785.69Z"/><path class="cls-1" d="M214.93,616.14H183.77a6,6,0,1,0,0,2.38h33.55V561.21h57.32V542.1h16.71v31.17a6,6,0,1,0,2.39,0V539.72H272.25v19.1H214.93Zm-37,4.77a3.58,3.58,0,1,1,3.58-3.58A3.58,3.58,0,0,1,177.92,620.91Zm118.21-41.79a3.59,3.59,0,1,1-3.58-3.58A3.58,3.58,0,0,1,296.13,579.12Z"/><path class="cls-1" d="M324.91,692.56H222a6,6,0,1,0,0,2.38H324.91a6,6,0,1,0,0-2.38Zm-108.78,4.77a3.58,3.58,0,1,1,3.58-3.58A3.58,3.58,0,0,1,216.13,697.33Zm118.21-3.58a3.59,3.59,0,1,1-3.58-3.58A3.58,3.58,0,0,1,334.34,693.75Z"/><path class="cls-1" d="M195.83,718.7a6,6,0,0,0,7-4.65H305.8a6,6,0,1,0,0-2.39H202.87a6,6,0,1,0-7,7Zm115.82-9.43a3.59,3.59,0,1,1-3.58,3.58A3.58,3.58,0,0,1,311.65,709.27Zm-114.63,0a3.59,3.59,0,1,1-3.58,3.58A3.58,3.58,0,0,1,197,709.27Z"/><path class="cls-1" d="M45.38,726.11a6,6,0,1,0,4.65,7h52.66V680.5a6,6,0,1,0-2.39,0v50.27H50A6,6,0,0,0,45.38,726.11Zm-1.2,9.43A3.58,3.58,0,1,1,47.76,732,3.58,3.58,0,0,1,44.18,735.54Zm53.73-60.9a3.59,3.59,0,1,1,3.59,3.59A3.59,3.59,0,0,1,97.91,674.64Z"/><path class="cls-1" d="M310.46,921.82v40.59h14.45a6,6,0,1,0,0-2.38H312.85V883.61H255.53V771.36h12.06a6,6,0,1,0,0-2.38H253.14V886h57.32Zm20.3,35.82a3.58,3.58,0,1,1-3.59,3.58A3.58,3.58,0,0,1,330.76,957.64Zm-57.32-191a3.58,3.58,0,1,1-3.58,3.58A3.58,3.58,0,0,1,273.44,766.59Z"/><path class="cls-1" d="M100.3,776a6,6,0,0,0,7-4.66h12.06v57.32h14.45a6,6,0,1,0,0-2.39H121.8V769H107.35a6,6,0,1,0-7,7Zm39.41,47.88a3.59,3.59,0,1,1-3.59,3.58A3.59,3.59,0,0,1,139.71,823.9ZM101.5,766.59a3.58,3.58,0,1,1-3.59,3.58A3.58,3.58,0,0,1,101.5,766.59Z"/><path class="cls-1" d="M81.2,756.91a6,6,0,0,0,7-4.65H121.8V694.94h12.06a6,6,0,1,0,0-2.38H119.41v57.31H88.24a6,6,0,1,0-7,7Zm58.51-66.74a3.58,3.58,0,1,1-3.59,3.58A3.58,3.58,0,0,1,139.71,690.17ZM82.39,747.48a3.59,3.59,0,1,1-3.58,3.58A3.58,3.58,0,0,1,82.39,747.48Z"/><path class="cls-1" d="M119.41,852.44a6,6,0,0,0,7-4.66h71.77V756.92a6,6,0,1,0-2.39,0V845.4H126.45a6,6,0,1,0-7,7Zm74-101.38a3.58,3.58,0,1,1,3.58,3.59A3.58,3.58,0,0,1,193.44,751.06ZM120.6,843a3.58,3.58,0,1,1-3.58,3.58A3.58,3.58,0,0,1,120.6,843Z"/><path class="cls-1" d="M81.2,635.24v76.42H69.14a6,6,0,1,0,0,2.39H83.59V637.63H121.8V604.08a6,6,0,1,0-2.39,0v31.16Zm-17.91,81.2a3.59,3.59,0,1,1,3.58-3.59A3.59,3.59,0,0,1,63.29,716.44ZM117,598.22a3.58,3.58,0,1,1,3.58,3.59A3.58,3.58,0,0,1,117,598.22Z"/><path class="cls-1" d="M153,826.29a6,6,0,1,0,7-4.66V807.19H140.9V718.71h0a6,6,0,1,0-2.39,0v90.86h19.11v12.06A6,6,0,0,0,153,826.29ZM136.12,712.85a3.59,3.59,0,1,1,3.59,3.59A3.59,3.59,0,0,1,136.12,712.85Zm22.69,111a3.59,3.59,0,1,1-3.58,3.58A3.58,3.58,0,0,1,158.81,823.9Z"/><path class="cls-1" d="M279.29,580.32a6,6,0,1,0-7,4.65v71.76h90.87a6,6,0,1,0,0-2.38H274.64V585A6,6,0,0,0,279.29,580.32ZM369,652a3.58,3.58,0,1,1-3.59,3.58A3.58,3.58,0,0,1,369,652ZM273.44,582.7a3.58,3.58,0,1,1,3.58-3.58A3.58,3.58,0,0,1,273.44,582.7Z"/><path class="cls-1" d="M196.32,656.73h59.21V585a6,6,0,1,0-2.39,0v69.38h-57.8l-37.72,37.72v91.35a6,6,0,1,0,2.39,0V693.05Zm54.43-77.61a3.59,3.59,0,1,1,3.59,3.58A3.58,3.58,0,0,1,250.75,579.12ZM162.39,789.27a3.58,3.58,0,1,1-3.58-3.58A3.58,3.58,0,0,1,162.39,789.27Z"/><path class="cls-1" d="M207.06,675.84H344a6,6,0,0,0,11.82-1.19,6.31,6.31,0,0,0-.11-1.15,6,6,0,0,0-11.71,0H206.08l-29.36,29.36V821.63a6,6,0,1,0,2.39,0V703.79Zm141.61-4.57a3.45,3.45,0,0,1,2.37,0,3.58,3.58,0,1,1-2.37,0ZM181.5,827.48a3.59,3.59,0,1,1-3.58-3.58A3.59,3.59,0,0,1,181.5,827.48Z"/><path class="cls-1" d="M126.45,577.93a6,6,0,1,0,0,2.38h31.17v50.27a6,6,0,1,0,2.39,0V577.93Zm-5.85,4.77a3.58,3.58,0,1,1,3.58-3.58A3.58,3.58,0,0,1,120.6,582.7Zm41.79,53.73a3.58,3.58,0,1,1-3.58-3.58A3.58,3.58,0,0,1,162.39,636.43Z"/><path class="cls-1" d="M119.41,680.49a6,6,0,0,0,7-4.65h23.8l38.21-38.21h48V585a6,6,0,1,0-2.39,0v50.27H187.47l-38.21,38.21H126.45a6,6,0,1,0-7,7ZM231.65,579.12a3.58,3.58,0,1,1,3.58,3.58A3.58,3.58,0,0,1,231.65,579.12Zm-111,91.94a3.59,3.59,0,1,1-3.58,3.58A3.58,3.58,0,0,1,120.6,671.06Z"/><path class="cls-1" d="M107.35,654.35a6,6,0,1,0,0,2.38H140.9V604.08a6,6,0,1,0-2.39,0v50.27Zm-5.85,4.77a3.58,3.58,0,1,1,3.58-3.58A3.58,3.58,0,0,1,101.5,659.12Zm34.62-60.9a3.59,3.59,0,1,1,3.59,3.59A3.59,3.59,0,0,1,136.12,598.22Z"/><path class="cls-1" d="M329.56,943.31h40.6V864.5H348.67v52.66a6,6,0,0,0-4.66,4.66h0a6,6,0,0,0,4.66,7,6.09,6.09,0,0,0,2.33,0,6,6,0,0,0,.06-11.7V866.89h16.71v74H332V864.5H274.64v-74h19.1v-40.6h-19.1V737.81a6,6,0,1,0-2.39,0v14.45h19.1v35.82h-19.1v78.81h57.31v76.42Zm23.68-21.49a3.51,3.51,0,0,1,0,2.39,3.58,3.58,0,0,1-4.57,2.18h0a3.59,3.59,0,0,1,0-6.76h0A3.58,3.58,0,0,1,353.24,921.82ZM269.86,732a3.58,3.58,0,1,1,3.58,3.58A3.58,3.58,0,0,1,269.86,732Z"/><path class="cls-1" d="M43,967.07a6,6,0,0,0,7-4.66H83.59V886H229.38a6,6,0,1,0,0-2.38H81.2V960H50a6,6,0,1,0-7,7Zm192.24-85.85a3.58,3.58,0,1,1-3.58,3.58A3.58,3.58,0,0,1,235.23,881.22Zm-191,76.42a3.58,3.58,0,1,1-3.58,3.58A3.58,3.58,0,0,1,44.18,957.64Z"/></g></g></svg>